<?xml version="1.0" encoding="utf-8"?>
<!-- Generator: Adobe Illustrator 15.1.0, SVG Export Plug-In . SVG Version: 6.00 Build 0)  -->
<!DOCTYPE svg PUBLIC "-//W3C//DTD SVG 1.1//EN" "http://www.w3.org/Graphics/SVG/1.1/DTD/svg11.dtd">
<svg version="1.1" id="レイヤー_2" xmlns="http://www.w3.org/2000/svg" xmlns:xlink="http://www.w3.org/1999/xlink" x="0px"
	 y="0px" width="832.591px" height="317.407px" viewBox="0 0 832.591 317.407" enable-background="new 0 0 832.591 317.407"
	 xml:space="preserve">
<path fill="none" stroke="#000000" stroke-miterlimit="10" d="M119.941,0"/>
<path fill="none" stroke="#000000" stroke-width="6" stroke-miterlimit="10" d="M115.941,0c0,0-75.074,111.509-111.365,173.942
	c0,0-2.426,19.918,20.735,6.828c23.161-13.092,78.546-33.231,147.021-71.497c0,0-101.759,153.116-122.789,190.327"/>
<path fill="none" stroke="#000000" stroke-width="6" stroke-miterlimit="10" d="M179.084,157.329c0,0-16.382,19.756-7.319,22.778
	c0,0,6.003,1.893,17.023-19.242c0,0-5.695,11,7.997,5.449c13.693-5.552,48.171-19.922,71.855-74.528c0,0,2.303-7.566-2.302-1.645
	c-4.606,5.921-5.612,1.644-47.214,75.988c0,0-6.076,12.5,5.767,1.975c0,0,18.75-15.222,25.329-18.302c0,0-17.105,40.341,25,3.499
	c0,0-19.079,32.237-56.251,95.067c0,0-0.989,8.225,10.196-6.25s48.686-53.621,100.66-90.135c0,0-24.014,39.146-18.422,42.105
	c0,0,0,4.277,11.842-15.789"/>
<line fill="none" stroke="#000000" stroke-width="6" stroke-miterlimit="10" x1="319.464" y1="115.798" x2="316.997" y2="121.72"/>
<line fill="none" stroke="#000000" stroke-width="6" stroke-miterlimit="10" x1="352.523" y1="133.809" x2="349.562" y2="139.976"/>
<path fill="none" stroke="#000000" stroke-width="6" stroke-miterlimit="10" d="M435.091,26.981c0,0-56.252,85.527-84.048,157.238
	c0,0-5.757,13.898,12.336,6.662c18.092-7.236,74.011-34.622,130.263-82.648c0,0-111.184,181.832-123.026,209.173"/>
<path fill="none" stroke="#000000" stroke-width="6" stroke-miterlimit="10" d="M509.351,147.707c0,0,3.373-11.185-5.592-3.208
	s-14.393,12.417-21.711,21.793c0,0-5.182,6.496,4.688,1.232c0,0,19.244-11.43,29.605-21.957c0,0-9.951,11.266-15.295,20.806
	c0,0-4.277,6.496,5.346,0.822c9.621-5.674,20.723-11.924,27.797-17.188c0,0-13.982,15.707-15.379,17.436
	c-1.398,1.727,0.492,1.643,4.85-0.824c4.359-2.467,16.119-8.305,27.139-15.295c0,0-7.318,9.045-13.486,16.282
	c-6.168,7.238,3.207,0.412,4.441-0.574s11.266-7.319,23.107-15.543c0,0-6.938,10.01-10.277,15.213
	c-5.018,7.812,7.482,1.645,10.277-0.904c0,0,30.842-27.468,31.746-16.284c0,0-1.148-9.621-26.889,15.792
	c0,0-11.596,10.115,8.801,1.232c0,0,22.453-10.361,22.945-18.831c0,0-9.045,15.296-11.348,20.724s-1.48,4.523,5.756,1.398
	c7.238-3.125,13.9-6.414,27.881-13.734"/>
<path fill="none" stroke="#000000" stroke-width="6" stroke-miterlimit="10" d="M623.753,155.766c0,0-7.074,8.717-11.186,14.473
	c-4.111,5.758-0.902,3.207,5.184-0.41c6.086-3.619,19.654-12.747,24.506-16.283c0,0-5.182,8.389-9.703,15.461
	c-4.523,7.072-3.619,5.674,3.207,0.986s13.568-9.703,20.066-13.98c0,0-7.646,8.388-10.443,15.048
	c-2.797,6.662,8.225,1.811,16.367-1.973c8.141-3.783,27.221-14.967,33.225-19.244c0,0-21.055,11.925-20.891,20.642
	s9.951,1.396,11.268,0.328c1.314-1.068,6.002-4.732,10.197-12.111c0,0,46.982,9.375,82.838-54.441c0,0,4.896-10.669-7.314,2.407
	c0,0-32.691,37.5-52.428,63.651c0,0-3.701,9.262,6.662,4.385c10.361-4.877,19.982-18.2,30.838-21.901
	c0,0-13.814,8.881-18.256,16.036c-4.441,7.156,5.611,10.725,18.504-5.041c0,0,2.959-6.06,34.539-10.254
	c0,0,34.047,0.247,36.514-4.934s0.74-3.454-3.207-4.194c-3.947-0.74-251.646-39.803-254.938-40.461"/>
</svg>
