<?xml version="1.0" standalone="no"?>
<!DOCTYPE svg PUBLIC "-//W3C//DTD SVG 20010904//EN"
 "http://www.w3.org/TR/2001/REC-SVG-20010904/DTD/svg10.dtd">
<svg version="1.0" xmlns="http://www.w3.org/2000/svg"
 width="750.000000pt" height="300.000000pt" viewBox="0 0 750.000000 300.000000"
 preserveAspectRatio="xMidYMid meet">

<g transform="translate(0.000000,300.000000) scale(0.100000,-0.100000)"
fill="#000000" stroke="none">
<path d="M0 1500 l0 -1500 3750 0 3750 0 0 1500 0 1500 -3750 0 -3750 0 0
-1500z m5880 -550 l0 -150 155 0 155 0 0 -35 0 -35 -155 0 -155 0 0 -151 0
-150 -32 3 -33 3 0 148 0 147 -152 0 -153 0 0 35 0 35 153 0 152 0 -3 150 -3
150 35 0 36 0 0 -150z m1040 -2 c63 -32 94 -91 94 -178 0 -87 -31 -146 -94
-177 -54 -28 -101 -29 -156 -4 -133 60 -136 292 -4 359 24 12 60 22 80 22 20
0 56 -10 80 -22z m-428 -136 l98 -147 0 148 0 147 25 0 25 0 0 -190 0 -190
-25 0 c-22 0 -40 23 -125 153 l-100 152 0 -152 0 -153 -25 0 -25 0 0 190 0
190 28 0 c24 0 38 -18 124 -148z m608 -42 l0 -190 -25 0 -25 0 0 190 0 190 25
0 25 0 0 -190z m291 152 c37 -42 39 -89 4 -130 -21 -25 -23 -32 -11 -41 8 -7
17 -40 21 -74 3 -34 9 -70 12 -80 4 -15 0 -18 -24 -15 -26 3 -28 7 -34 55 -14
109 -18 113 -116 113 l-53 0 0 -85 c0 -84 0 -85 -25 -85 l-25 0 0 191 0 191
111 -4 c111 -3 111 -3 140 -36z"/>
<path d="M6760 892 c-40 -41 -55 -103 -40 -169 15 -70 53 -103 119 -103 81 0
124 52 124 150 0 99 -43 150 -126 150 -40 0 -54 -5 -77 -28z"/>
<path d="M7190 850 l0 -60 61 0 c82 0 119 20 119 66 0 39 -30 54 -108 54 l-72
0 0 -60z"/>
</g>
</svg>